<svg xmlns="http://www.w3.org/2000/svg" viewBox="0 0 24 24" width="24" height="24" fill="currentColor">
    <path d="M7.75 2h8.5A5.75 5.75 0 0 1 22 7.75v8.5A5.75 5.75 0 0 1 16.25 22h-8.5A5.75 5.75 0 0 1 2 16.25v-8.5A5.75 5.75 0 0 1 7.75 2zm0 1.5A4.25 4.25 0 0 0 3.5 7.75v8.5A4.25 4.25 0 0 0 7.75 20.5h8.5A4.25 4.25 0 0 0 20.5 16.25v-8.5A4.25 4.25 0 0 0 16.25 3.5h-8.5zM12 7.25a4.75 4.75 0 1 1 0 9.5 4.75 4.75 0 0 1 0-9.5zm0 1.5a3.25 3.25 0 1 0 0 6.5 3.25 3.25 0 0 0 0-6.5zm5.25-.75a.875.875 0 1 1 0 1.75.875.875 0 0 1 0-1.75z"/>
</svg>